<svg width="1920" height="1080" viewBox="0 0 1920 1080" fill="none" xmlns="http://www.w3.org/2000/svg">
<g clip-path="url(#clip0_913_30031)">
<rect width="1920" height="1080" rx="5" fill="#FAF7F2"/>
<path fill-rule="evenodd" clip-rule="evenodd" d="M942.613 573.909C844.685 571.885 801.983 445.582 722.149 388.865C647.526 335.85 546.422 324.721 490.201 252.5C427.249 171.632 369.987 66.7938 393.861 -32.8505C417.69 -132.307 539.202 -168.126 608.916 -242.986C675.294 -314.263 705.949 -418.964 793.403 -461.879C886.659 -507.641 998.473 -512.68 1098.03 -483C1197.38 -453.379 1269.43 -374.014 1340.67 -298.722C1414.87 -220.296 1501.67 -143.337 1520.04 -36.9708C1538.56 70.3244 1507.72 187.969 1439.34 272.726C1375.69 351.609 1255.7 345.538 1169.01 398.099C1085.62 448.666 1040.14 575.924 942.613 573.909Z" stroke="url(#paint0_linear_913_30031)" stroke-width="2"/>
<path fill-rule="evenodd" clip-rule="evenodd" d="M946.128 450.177C870.666 448.619 837.761 351.372 776.242 307.703C718.738 266.884 640.829 258.315 597.506 202.71C548.996 140.445 504.871 59.7254 523.268 -16.9953C541.63 -93.5714 635.265 -121.15 688.986 -178.788C740.136 -233.668 763.758 -314.282 831.149 -347.324C903.011 -382.559 989.174 -386.439 1065.89 -363.586C1142.45 -340.78 1197.97 -279.673 1252.86 -221.702C1310.04 -161.318 1376.93 -102.064 1391.08 -20.1677C1405.36 62.4438 1381.59 153.024 1328.9 218.283C1279.85 279.018 1187.39 274.344 1120.59 314.813C1056.33 353.746 1021.28 451.729 946.128 450.177Z" stroke="url(#paint1_linear_913_30031)" stroke-width="2"/>
<path fill-rule="evenodd" clip-rule="evenodd" d="M1979.8 -393.947C2063.17 -408.875 2153.56 -388.007 2222.59 -338.965C2290.43 -290.778 2314.01 -205.337 2350.52 -130.592C2388.06 -53.7291 2464.73 22.9814 2439.27 104.641C2413.17 188.351 2295.42 196.834 2230.17 255.442C2176.13 303.979 2151.75 377.431 2091.08 417.388C2015.06 467.461 1931.75 514.885 1840.75 511.934C1738.7 508.624 1604.24 493.247 1562.24 400.238C1516.64 299.256 1619.6 193.179 1648.51 86.2231C1664.8 25.9332 1671.94 -33.3271 1695.1 -91.3301C1719.45 -152.317 1742.14 -213.158 1787.15 -260.995C1841.71 -318.992 1901.4 -379.908 1979.8 -393.947Z" stroke="url(#paint2_linear_913_30031)" stroke-width="2"/>
<path fill-rule="evenodd" clip-rule="evenodd" d="M1982.93 -313.716C2051.5 -325.989 2125.83 -308.832 2182.61 -268.513C2238.39 -228.896 2257.79 -158.65 2287.82 -97.1992C2318.69 -34.0069 2381.74 29.0604 2360.8 96.1968C2339.34 165.018 2242.5 171.993 2188.84 220.177C2144.4 260.081 2124.34 320.47 2074.45 353.32C2011.93 394.487 1943.41 433.477 1868.57 431.051C1784.65 428.33 1674.06 415.687 1639.52 339.22C1602.02 256.199 1686.7 168.988 1710.47 81.0543C1723.87 31.4872 1729.74 -17.2335 1748.79 -64.9204C1768.82 -115.06 1787.48 -165.08 1824.49 -204.41C1869.36 -252.092 1918.45 -302.174 1982.93 -313.716Z" stroke="url(#paint3_linear_913_30031)" stroke-width="2"/>
<path fill-rule="evenodd" clip-rule="evenodd" d="M-279.53 316.809C-362.036 318.358 -442.638 306.183 -518.014 272.613C-603.165 234.69 -686.811 188.465 -739.81 111.816C-798.355 27.1472 -872.225 -83.7937 -829.067 -177.239C-782.773 -277.471 -612.732 -240.779 -538.996 -322.976C-467.469 -402.712 -517.896 -554.439 -432.581 -619.227C-347.708 -683.68 -220.804 -675.89 -120.045 -641.127C-20.9675 -606.944 54.8489 -523.898 107.039 -433.05C153.915 -351.454 138.606 -253.332 155.873 -160.838C174.102 -63.1958 254.149 36.138 211.369 125.792C168.501 215.628 46.064 227.655 -46.7356 263.765C-122.435 293.221 -198.31 315.284 -279.53 316.809Z" stroke="url(#paint4_linear_913_30031)" stroke-width="2"/>
<path fill-rule="evenodd" clip-rule="evenodd" d="M1517.77 1325.19C1436.11 1319.41 1356.4 1331.8 1277.68 1309.36C1174.73 1280.01 1049.55 1266.36 992.891 1175.56C936.278 1084.83 954.501 958.954 998.118 861.316C1037.94 772.183 1150.02 746.598 1216.48 675.064C1279.59 607.13 1285.5 473.452 1376.25 454.288C1468.95 434.71 1530.65 556.861 1619.42 589.972C1698.74 619.558 1795.72 586.077 1863.94 636.191C1937.01 689.868 2010.03 777.499 1996.76 867.158C1982.89 960.934 1839.55 978.65 1800.49 1065.04C1761.16 1152.04 1851.02 1280.29 1780.74 1344.96C1714.73 1405.7 1607.26 1331.52 1517.77 1325.19Z" stroke="url(#paint5_linear_913_30031)" stroke-width="2"/>
<path fill-rule="evenodd" clip-rule="evenodd" d="M1507.76 1223.24C1446.25 1218.87 1386.2 1228.22 1326.91 1211.29C1249.35 1189.14 1155.05 1178.84 1112.38 1110.32C1069.73 1041.85 1083.46 946.855 1116.32 873.172C1146.31 805.908 1230.74 786.599 1280.8 732.616C1328.34 681.35 1332.79 580.47 1401.15 566.008C1470.99 551.234 1517.46 643.414 1584.33 668.402C1644.08 690.729 1717.13 665.462 1768.52 703.281C1823.57 743.788 1878.57 809.919 1868.57 877.581C1858.12 948.349 1750.15 961.718 1720.73 1026.91C1691.1 1092.57 1758.79 1189.35 1705.85 1238.15C1656.13 1283.99 1575.17 1228.01 1507.76 1223.24Z" stroke="url(#paint6_linear_913_30031)" stroke-width="2"/>
<path fill-rule="evenodd" clip-rule="evenodd" d="M1496.2 1102.63C1458.34 1099.95 1421.39 1105.7 1384.9 1095.29C1337.18 1081.67 1279.15 1075.34 1252.89 1033.22C1226.64 991.137 1235.09 932.748 1255.31 887.457C1273.77 846.111 1325.72 834.243 1356.53 801.061C1385.79 769.548 1388.53 707.539 1430.59 698.65C1473.57 689.569 1502.17 746.23 1543.32 761.589C1580.09 775.313 1625.04 759.783 1656.67 783.029C1690.54 807.928 1724.39 848.577 1718.24 890.167C1711.81 933.667 1645.36 941.884 1627.26 981.956C1609.02 1022.31 1650.68 1081.81 1618.1 1111.8C1587.5 1139.98 1537.68 1105.57 1496.2 1102.63Z" stroke="url(#paint7_linear_913_30031)" stroke-width="2"/>
<path fill-rule="evenodd" clip-rule="evenodd" d="M349.833 1330.62C241.741 1328.62 208.667 1174.81 147.651 1085.61C108.81 1028.83 96.8279 961.217 58.1989 904.295C8.30298 830.77 -113.709 793.802 -110.635 705.014C-107.664 619.198 13.9798 593.931 71.162 529.846C127.19 467.054 140.076 355.813 221.151 333.174C302.379 310.492 374.21 390.887 451.976 423.508C519.678 451.907 592.864 464.666 648.574 512.465C710.216 565.352 752.025 634.272 784.413 708.734C826.062 804.487 916.169 915.537 862.982 1005.4C807.82 1098.6 648.377 1035.18 556.878 1093.17C466.331 1150.56 457.032 1332.6 349.833 1330.62Z" stroke="url(#paint8_linear_913_30031)" stroke-width="2"/>
<path fill-rule="evenodd" clip-rule="evenodd" d="M360.537 1171.99C286.711 1170.62 264.121 1065.61 222.448 1004.71C195.92 965.942 187.736 919.777 161.353 880.913C127.275 830.714 43.942 805.474 46.0413 744.855C48.0704 686.264 131.152 669.013 170.207 625.259C208.473 582.387 217.274 506.438 272.648 490.981C328.125 475.495 377.185 530.385 430.299 552.656C476.539 572.046 526.524 580.757 564.574 613.392C606.674 649.5 635.23 696.555 657.35 747.395C685.796 812.77 747.338 888.589 711.012 949.944C673.337 1013.58 564.439 970.278 501.946 1009.87C440.104 1049.05 433.752 1173.34 360.537 1171.99Z" stroke="url(#paint9_linear_913_30031)" stroke-width="2"/>
<path fill-rule="evenodd" clip-rule="evenodd" d="M372.158 1003.84C334.725 1003.14 323.271 949.782 302.141 918.838C288.69 899.141 284.541 875.683 271.163 855.936C253.884 830.429 211.631 817.604 212.695 786.801C213.724 757.03 255.85 748.265 275.652 726.032C295.055 704.248 299.518 665.657 327.594 657.803C355.724 649.934 380.599 677.825 407.53 689.142C430.976 698.994 456.32 703.42 475.613 720.002C496.96 738.35 511.439 762.259 522.655 788.092C537.078 821.31 568.282 859.836 549.863 891.011C530.761 923.344 475.545 901.343 443.858 921.461C412.501 941.37 409.281 1004.52 372.158 1003.84Z" stroke="url(#paint10_linear_913_30031)" stroke-width="2"/>
</g>
<defs>
<linearGradient id="paint0_linear_913_30031" x1="956.828" y1="573.933" x2="956.828" y2="-501.584" gradientUnits="userSpaceOnUse">
<stop stop-color="#F2EDE4"/>
<stop offset="1" stop-color="#F2EDE4"/>
</linearGradient>
<linearGradient id="paint1_linear_913_30031" x1="957.083" y1="450.195" x2="957.083" y2="-377.896" gradientUnits="userSpaceOnUse">
<stop stop-color="#F2EDE4"/>
<stop offset="1" stop-color="#F2EDE4"/>
</linearGradient>
<linearGradient id="paint2_linear_913_30031" x1="1997.55" y1="-398.688" x2="1997.55" y2="512.064" gradientUnits="userSpaceOnUse">
<stop stop-color="#F2EDE4"/>
<stop offset="1" stop-color="#F2EDE4"/>
</linearGradient>
<linearGradient id="paint3_linear_913_30031" x1="1997.53" y1="-317.613" x2="1997.53" y2="431.158" gradientUnits="userSpaceOnUse">
<stop stop-color="#F2EDE4"/>
<stop offset="1" stop-color="#F2EDE4"/>
</linearGradient>
<linearGradient id="paint4_linear_913_30031" x1="-309.108" y1="316.938" x2="-309.108" y2="-667.573" gradientUnits="userSpaceOnUse">
<stop stop-color="#F2EDE4"/>
<stop offset="1" stop-color="#F2EDE4"/>
</linearGradient>
<linearGradient id="paint5_linear_913_30031" x1="1477.87" y1="1368.71" x2="1477.87" y2="452.176" gradientUnits="userSpaceOnUse">
<stop stop-color="#F2EDE4"/>
<stop offset="1" stop-color="#F2EDE4"/>
</linearGradient>
<linearGradient id="paint6_linear_913_30031" x1="1477.7" y1="1256.08" x2="1477.7" y2="564.414" gradientUnits="userSpaceOnUse">
<stop stop-color="#F2EDE4"/>
<stop offset="1" stop-color="#F2EDE4"/>
</linearGradient>
<linearGradient id="paint7_linear_913_30031" x1="1477.7" y1="1122.82" x2="1477.7" y2="697.67" gradientUnits="userSpaceOnUse">
<stop stop-color="#F2EDE4"/>
<stop offset="1" stop-color="#F2EDE4"/>
</linearGradient>
<linearGradient id="paint8_linear_913_30031" x1="384.316" y1="1330.64" x2="384.316" y2="329.2" gradientUnits="userSpaceOnUse">
<stop stop-color="#F2EDE4"/>
<stop offset="1" stop-color="#F2EDE4"/>
</linearGradient>
<linearGradient id="paint9_linear_913_30031" x1="384.088" y1="1172" x2="384.088" y2="488.268" gradientUnits="userSpaceOnUse">
<stop stop-color="#F2EDE4"/>
<stop offset="1" stop-color="#F2EDE4"/>
</linearGradient>
<linearGradient id="paint10_linear_913_30031" x1="384.099" y1="1003.84" x2="384.099" y2="656.424" gradientUnits="userSpaceOnUse">
<stop stop-color="#F2EDE4"/>
<stop offset="1" stop-color="#F2EDE4"/>
</linearGradient>
<clipPath id="clip0_913_30031">
<rect width="1920" height="1080" rx="5" fill="white"/>
</clipPath>
</defs>
</svg>
