<svg width="13" height="15" viewBox="0 0 13 15" fill="none" xmlns="http://www.w3.org/2000/svg">
<g clip-path="url(#clip0_801_66918)">
<path fill-rule="evenodd" clip-rule="evenodd" d="M9.51811 0.00395944C8.80127 0.00353158 8.11331 0.286408 7.60411 0.790959L4.41311 3.96296C2.94913 5.41641 1.90917 7.24154 1.40511 9.24196L1.25111 9.85396C1.21575 9.99974 1.21863 10.1522 1.25949 10.2965C1.30034 10.4409 1.37778 10.5722 1.48431 10.6778C1.59083 10.7834 1.72282 10.8597 1.8675 10.8994C2.01218 10.939 2.16464 10.9406 2.31011 10.904L2.92611 10.751C4.93458 10.2528 6.7706 9.2199 8.23911 7.76196L11.4301 4.59096C11.8076 4.21483 12.0647 3.73488 12.1685 3.2122C12.2724 2.68951 12.2184 2.14775 12.0133 1.65587C11.8083 1.16399 11.4615 0.744245 11.0172 0.450073C10.5728 0.1559 10.051 0.000606012 9.51811 0.00395944ZM8.60111 3.60396C8.78305 3.81305 9.01056 3.9776 9.26611 4.08491C9.52166 4.19223 9.79843 4.23946 10.0751 4.22296L10.5671 3.73496C10.7745 3.52858 10.9157 3.26513 10.9727 2.97819C11.0298 2.69125 11.0001 2.39381 10.8875 2.12381C10.7748 1.8538 10.5843 1.62345 10.3403 1.46212C10.0962 1.30079 9.80966 1.21579 9.51711 1.21796C9.1243 1.21774 8.7473 1.37264 8.46811 1.64896L7.97711 2.13696C7.96047 2.4131 8.00817 2.68933 8.11646 2.9439C8.22474 3.19847 8.39065 3.42442 8.60111 3.60396Z" fill="#323232"/>
<path fill-rule="evenodd" clip-rule="evenodd" d="M0.410156 13.5631C0.410287 13.483 0.426203 13.4038 0.456992 13.3299C0.487781 13.256 0.532839 13.1889 0.589589 13.1324C0.646338 13.0759 0.713666 13.0312 0.787719 13.0008C0.861772 12.9703 0.941097 12.9548 1.02116 12.9551H12.4282C12.5831 12.964 12.7288 13.0318 12.8354 13.1447C12.9419 13.2575 13.0013 13.4069 13.0013 13.5621C13.0013 13.7173 12.9419 13.8666 12.8354 13.9795C12.7288 14.0924 12.5831 14.1602 12.4282 14.1691H1.02116C0.859812 14.1696 0.70485 14.1061 0.590294 13.9925C0.475738 13.8789 0.41095 13.7244 0.410156 13.5631Z" fill="#323232"/>
</g>
<defs>
<clipPath id="clip0_801_66918">
<rect width="12.59" height="14.167" fill="white" transform="translate(0.410156 0.00390625)"/>
</clipPath>
</defs>
</svg>
