<svg width="3317" height="3189" viewBox="0 0 3317 3189" fill="none" xmlns="http://www.w3.org/2000/svg">
<path d="M2089.65 2258.26C1737.12 1609.39 1004.8 1181.92 464.934 883.889C1658.44 1304.89 2508.61 2053.89 2666.99 2345.12C2048.78 3821.67 592.663 3055.29 562.008 2345.12H1113.8C1502.1 2963.33 2059 2569.92 2089.65 2258.26Z" fill="url(#paint0_linear_324_216)"/>
<path d="M2115.2 163.494L2677.21 0V1267.08C2476.93 1128.11 2219.09 1042.27 2115.2 1016.73V163.494Z" fill="url(#paint1_linear_324_216)"/>
<path d="M1813.76 1348.82C3174.85 2178.56 3062.1 2794.72 2835.6 2999.09C3996.4 2263.37 2787.91 1479.96 2038.56 1180.22C1785.15 1028.99 573.932 657.382 0 490.482C555.879 670.325 1440.79 1137.65 1813.76 1348.82Z" fill="url(#paint2_linear_324_216)"/>
<defs>
<linearGradient id="paint0_linear_324_216" x1="1565.96" y1="883.889" x2="1565.96" y2="3188.96" gradientUnits="userSpaceOnUse">
<stop stop-color="#BAC1FF"/>
<stop offset="0.5" stop-color="#63FEFE"/>
<stop offset="1" stop-color="#FF3EEC"/>
</linearGradient>
<linearGradient id="paint1_linear_324_216" x1="1706.47" y1="326.988" x2="1658.5" y2="2999.09" gradientUnits="userSpaceOnUse">
<stop stop-color="#BAC1FF"/>
<stop offset="0.472895" stop-color="#63FEFE"/>
<stop offset="1" stop-color="#FF3EEC"/>
</linearGradient>
<linearGradient id="paint2_linear_324_216" x1="1706.47" y1="326.988" x2="1658.5" y2="2999.09" gradientUnits="userSpaceOnUse">
<stop stop-color="#BAC1FF"/>
<stop offset="0.472895" stop-color="#63FEFE"/>
<stop offset="1" stop-color="#FF3EEC"/>
</linearGradient>
</defs>
</svg>
