<svg width="1140" height="575" viewBox="0 0 1140 575" fill="none" xmlns="http://www.w3.org/2000/svg">
<path fill-rule="evenodd" clip-rule="evenodd" d="M555.614 573.909C457.686 571.885 414.984 445.582 335.15 388.865C260.527 335.85 159.423 324.721 103.202 252.5C40.25 171.632 -17.0116 66.7938 6.86237 -32.8505C30.6914 -132.307 152.203 -168.126 221.917 -242.986C288.295 -314.263 318.949 -418.964 406.404 -461.879C499.66 -507.641 611.474 -512.68 711.029 -483C810.385 -453.379 882.431 -374.014 953.669 -298.722C1027.87 -220.296 1114.67 -143.337 1133.04 -36.9708C1151.57 70.3244 1120.72 187.969 1052.34 272.726C988.694 351.609 868.701 345.538 782.016 398.099C698.618 448.666 653.138 575.924 555.614 573.909Z" stroke="url(#paint0_linear_913_30114)" stroke-width="2"/>
<path fill-rule="evenodd" clip-rule="evenodd" d="M559.129 450.177C483.667 448.619 450.762 351.372 389.243 307.703C331.739 266.884 253.83 258.315 210.507 202.71C161.997 140.445 117.872 59.7254 136.269 -16.9953C154.631 -93.5714 248.266 -121.15 301.987 -178.788C353.137 -233.668 376.759 -314.282 444.15 -347.324C516.012 -382.559 602.174 -386.439 678.89 -363.586C755.452 -340.78 810.971 -279.673 865.865 -221.702C923.045 -161.318 989.933 -102.064 1004.09 -20.1677C1018.36 62.4438 994.595 153.024 941.899 218.283C892.856 279.018 800.39 274.344 733.592 314.813C669.327 353.746 634.28 451.729 559.129 450.177Z" stroke="url(#paint1_linear_913_30114)" stroke-width="2"/>
<defs>
<linearGradient id="paint0_linear_913_30114" x1="569.829" y1="573.933" x2="569.829" y2="-501.584" gradientUnits="userSpaceOnUse">
<stop stop-color="#F2EDE4"/>
<stop offset="1" stop-color="#F2EDE4"/>
</linearGradient>
<linearGradient id="paint1_linear_913_30114" x1="570.084" y1="450.195" x2="570.084" y2="-377.896" gradientUnits="userSpaceOnUse">
<stop stop-color="#F2EDE4"/>
<stop offset="1" stop-color="#F2EDE4"/>
</linearGradient>
</defs>
</svg>
