<svg width="371" height="514" viewBox="0 0 371 514" fill="none" xmlns="http://www.w3.org/2000/svg">
<path fill-rule="evenodd" clip-rule="evenodd" d="M430.803 -393.947C514.172 -408.875 604.558 -388.007 673.593 -338.965C741.425 -290.778 765.013 -205.337 801.521 -130.592C839.063 -53.7291 915.726 22.9814 890.267 104.641C864.17 188.351 746.419 196.834 681.17 255.442C627.133 303.979 602.745 377.431 542.081 417.388C466.057 467.461 382.748 514.885 291.748 511.934C189.702 508.624 55.2403 493.247 13.2402 400.238C-32.36 299.256 70.6013 193.179 99.5096 86.2231C115.805 25.9332 122.943 -33.3271 146.103 -91.3301C170.454 -152.317 193.143 -213.158 238.148 -260.995C292.711 -318.992 352.398 -379.908 430.803 -393.947Z" stroke="url(#paint0_linear_913_30115)" stroke-width="2"/>
<path fill-rule="evenodd" clip-rule="evenodd" d="M433.932 -313.716C502.496 -325.989 576.831 -308.832 633.606 -268.513C689.392 -228.896 708.79 -158.65 738.815 -97.1992C769.691 -34.0069 832.739 29.0604 811.801 96.1968C790.338 165.018 693.499 171.993 639.837 220.177C595.396 260.081 575.34 320.47 525.448 353.32C462.926 394.487 394.41 433.477 319.571 431.051C235.648 428.33 125.064 415.687 90.5228 339.22C53.0206 256.199 137.697 168.988 161.472 81.0543C174.873 31.4872 180.744 -17.2335 199.791 -64.9204C219.817 -115.06 238.477 -165.08 275.49 -204.41C320.364 -252.092 369.451 -302.174 433.932 -313.716Z" stroke="url(#paint1_linear_913_30115)" stroke-width="2"/>
<defs>
<linearGradient id="paint0_linear_913_30115" x1="448.549" y1="-398.688" x2="448.549" y2="512.064" gradientUnits="userSpaceOnUse">
<stop stop-color="#F2EDE4"/>
<stop offset="1" stop-color="#F2EDE4"/>
</linearGradient>
<linearGradient id="paint1_linear_913_30115" x1="448.527" y1="-317.613" x2="448.527" y2="431.158" gradientUnits="userSpaceOnUse">
<stop stop-color="#F2EDE4"/>
<stop offset="1" stop-color="#F2EDE4"/>
</linearGradient>
</defs>
</svg>
