<svg width="964" height="629" viewBox="0 0 964 629" fill="none" xmlns="http://www.w3.org/2000/svg">
<path fill-rule="evenodd" clip-rule="evenodd" d="M561.766 874.191C480.111 868.412 400.404 880.8 321.684 858.359C218.726 829.008 93.5466 815.356 36.8924 724.559C-19.7207 633.829 -1.49804 507.954 42.1193 410.316C81.9373 321.183 194.022 295.598 260.476 224.064C323.587 156.13 329.499 22.4516 420.248 3.28773C512.955 -16.2896 574.649 105.861 663.422 138.972C742.745 168.558 839.721 135.077 907.942 185.191C981.013 238.868 1054.03 326.499 1040.76 416.158C1026.89 509.934 883.551 527.65 844.494 614.036C805.159 701.039 895.016 829.292 824.739 893.958C758.732 954.696 651.265 880.524 561.766 874.191Z" stroke="url(#paint0_linear_913_30113)" stroke-width="2"/>
<path fill-rule="evenodd" clip-rule="evenodd" d="M551.757 772.235C490.247 767.874 430.205 777.223 370.907 760.288C293.351 738.138 199.055 727.835 156.379 659.316C113.733 590.846 127.46 495.855 160.316 422.172C190.31 354.908 274.741 335.599 324.8 281.616C372.34 230.35 376.794 129.47 445.153 115.008C514.988 100.234 561.461 192.414 628.332 217.402C688.084 239.729 761.135 214.462 812.525 252.281C867.567 292.788 922.567 358.919 912.574 426.581C902.123 497.349 794.151 510.718 764.73 575.909C735.1 641.566 802.788 738.352 749.849 787.152C700.127 832.988 619.174 777.015 551.757 772.235Z" stroke="url(#paint1_linear_913_30113)" stroke-width="2"/>
<path fill-rule="evenodd" clip-rule="evenodd" d="M540.197 651.634C502.345 648.953 465.396 654.7 428.905 644.29C381.178 630.675 323.15 624.342 296.887 582.224C270.644 540.137 279.091 481.748 299.31 436.457C317.768 395.111 369.726 383.243 400.532 350.061C429.787 318.548 432.528 256.539 474.595 247.65C517.57 238.569 546.169 295.23 587.32 310.589C624.091 324.313 669.045 308.783 700.669 332.029C734.542 356.928 768.388 397.577 762.238 439.167C755.807 482.667 689.363 490.884 671.258 530.956C653.023 571.314 694.677 630.807 662.1 660.803C631.502 688.977 581.685 654.571 540.197 651.634Z" stroke="url(#paint2_linear_913_30113)" stroke-width="2"/>
<defs>
<linearGradient id="paint0_linear_913_30113" x1="521.873" y1="917.709" x2="521.873" y2="1.17615" gradientUnits="userSpaceOnUse">
<stop stop-color="#F2EDE4"/>
<stop offset="1" stop-color="#F2EDE4"/>
</linearGradient>
<linearGradient id="paint1_linear_913_30113" x1="521.706" y1="805.076" x2="521.706" y2="113.414" gradientUnits="userSpaceOnUse">
<stop stop-color="#F2EDE4"/>
<stop offset="1" stop-color="#F2EDE4"/>
</linearGradient>
<linearGradient id="paint2_linear_913_30113" x1="521.704" y1="671.82" x2="521.704" y2="246.67" gradientUnits="userSpaceOnUse">
<stop stop-color="#F2EDE4"/>
<stop offset="1" stop-color="#F2EDE4"/>
</linearGradient>
</defs>
</svg>
