<svg width="225" height="318" viewBox="0 0 225 318" fill="none" xmlns="http://www.w3.org/2000/svg">
<path fill-rule="evenodd" clip-rule="evenodd" d="M-279.53 316.809C-362.036 318.358 -442.638 306.183 -518.014 272.613C-603.165 234.69 -686.811 188.465 -739.81 111.816C-798.355 27.1472 -872.225 -83.7937 -829.067 -177.239C-782.773 -277.471 -612.732 -240.779 -538.996 -322.976C-467.469 -402.712 -517.896 -554.439 -432.581 -619.227C-347.708 -683.68 -220.804 -675.89 -120.045 -641.127C-20.9675 -606.944 54.8489 -523.898 107.039 -433.05C153.915 -351.454 138.606 -253.332 155.873 -160.838C174.102 -63.1958 254.149 36.138 211.369 125.792C168.501 215.628 46.064 227.655 -46.7356 263.765C-122.435 293.221 -198.31 315.284 -279.53 316.809Z" stroke="url(#paint0_linear_913_30039)" stroke-width="2"/>
<defs>
<linearGradient id="paint0_linear_913_30039" x1="-309.108" y1="316.938" x2="-309.108" y2="-667.573" gradientUnits="userSpaceOnUse">
<stop stop-color="#F2EDE4"/>
<stop offset="1" stop-color="#F2EDE4"/>
</linearGradient>
</defs>
</svg>
