<svg width="881" height="752" viewBox="0 0 881 752" fill="none" xmlns="http://www.w3.org/2000/svg">
<path fill-rule="evenodd" clip-rule="evenodd" d="M349.834 1002.62C241.742 1000.62 208.668 846.809 147.651 757.613C108.811 700.834 96.8289 633.217 58.1999 576.295C8.30395 502.77 -113.708 465.802 -110.634 377.014C-107.663 291.198 13.9808 265.931 71.163 201.846C127.191 139.054 140.077 27.8129 221.152 5.17355C302.38 -17.5082 374.211 62.8874 451.977 95.5082C519.679 123.907 592.865 136.666 648.575 184.465C710.217 237.352 752.026 306.272 784.414 380.734C826.063 476.487 916.17 587.537 862.983 677.401C807.821 770.601 648.378 707.184 556.879 765.174C466.332 822.559 457.033 1004.6 349.834 1002.62Z" stroke="url(#paint0_linear_913_30112)" stroke-width="2"/>
<path fill-rule="evenodd" clip-rule="evenodd" d="M360.538 843.987C286.712 842.624 264.122 737.607 222.449 676.708C195.921 637.942 187.737 591.777 161.354 552.913C127.276 502.714 43.943 477.474 46.0423 416.855C48.0714 358.264 131.153 341.013 170.208 297.259C208.474 254.387 217.275 178.438 272.649 162.981C328.126 147.495 377.186 202.385 430.3 224.656C476.54 244.046 526.525 252.757 564.575 285.392C606.675 321.5 635.231 368.555 657.351 419.395C685.797 484.77 747.339 560.589 711.013 621.944C673.338 685.576 564.44 642.278 501.947 681.87C440.105 721.05 433.753 845.339 360.538 843.987Z" stroke="url(#paint1_linear_913_30112)" stroke-width="2"/>
<path fill-rule="evenodd" clip-rule="evenodd" d="M372.159 675.836C334.726 675.143 323.272 621.782 302.142 590.838C288.691 571.141 284.541 547.683 271.164 527.936C253.885 502.429 211.632 489.604 212.696 458.801C213.725 429.03 255.851 420.265 275.653 398.032C295.056 376.248 299.519 337.657 327.595 329.803C355.725 321.934 380.6 349.825 407.531 361.142C430.977 370.994 456.321 375.42 475.614 392.002C496.961 410.35 511.44 434.259 522.656 460.092C537.079 493.31 568.283 531.836 549.864 563.011C530.762 595.344 475.546 573.343 443.859 593.461C412.502 613.37 409.282 676.523 372.159 675.836Z" stroke="url(#paint2_linear_913_30112)" stroke-width="2"/>
<defs>
<linearGradient id="paint0_linear_913_30112" x1="384.317" y1="1002.64" x2="384.317" y2="1.20026" gradientUnits="userSpaceOnUse">
<stop stop-color="#F2EDE4"/>
<stop offset="1" stop-color="#F2EDE4"/>
</linearGradient>
<linearGradient id="paint1_linear_913_30112" x1="384.089" y1="843.998" x2="384.089" y2="160.268" gradientUnits="userSpaceOnUse">
<stop stop-color="#F2EDE4"/>
<stop offset="1" stop-color="#F2EDE4"/>
</linearGradient>
<linearGradient id="paint2_linear_913_30112" x1="384.1" y1="675.842" x2="384.1" y2="328.424" gradientUnits="userSpaceOnUse">
<stop stop-color="#F2EDE4"/>
<stop offset="1" stop-color="#F2EDE4"/>
</linearGradient>
</defs>
</svg>
