<svg width="48" height="51" viewBox="0 0 48 51" fill="none" xmlns="http://www.w3.org/2000/svg">
<path fill-rule="evenodd" clip-rule="evenodd" d="M33.718 0.641481C34.4322 -0.0244092 35.4687 -0.129435 36.2776 0.132182C38.1549 0.741363 38.7384 2.92425 38.2152 4.57382C37.8058 5.88479 36.8954 6.86223 36.0146 7.50592C35.572 7.82939 35.1277 8.07554 34.7402 8.24233C34.3679 8.40257 34.0026 8.50947 33.7294 8.50947C33.4577 8.50947 33.0948 8.40521 32.7235 8.24682C32.3375 8.08219 31.895 7.83857 31.4535 7.51666C30.5738 6.87538 29.6644 5.89813 29.2428 4.57539C28.7188 2.92646 29.2976 0.741919 31.1763 0.132349C31.9999 -0.13542 33.0005 0.00456741 33.718 0.641481ZM34.9501 2.20228C34.9753 1.95583 35.1938 1.77658 35.4384 1.80189C35.8191 1.84132 36.1498 2.01817 36.3775 2.30839C36.6023 2.59495 36.7038 2.96181 36.6909 3.34963C36.6826 3.59723 36.4768 3.79122 36.2311 3.78291C35.9855 3.7746 35.793 3.56714 35.8012 3.31954C35.8084 3.10581 35.7518 2.95725 35.6793 2.86487C35.6097 2.77615 35.5038 2.71055 35.3474 2.69435C35.1029 2.66904 34.925 2.44873 34.9501 2.20228ZM38.2819 30.7751C38.942 27.9282 38.9494 25.1606 38.9564 22.5937V22.593C38.958 21.9781 38.9597 21.3747 38.9702 20.7844C38.5592 16.7298 39.2241 14.8858 39.9004 14.0152C40.0582 13.7327 40.2334 13.4667 40.4233 13.2164C42.3618 10.4023 45.5141 9.64109 47.2145 9.66725V16.4971C47.2424 17.5354 47.2733 18.5275 47.3028 19.478V19.478C47.553 27.5273 47.7101 32.5839 45.2245 37.3148C38.2018 53.509 17.8633 53.9614 8.29434 45.7808C-5.30119 34.1579 -1.77226 9.04436 15.8699 9.04456C16.073 9.0779 16.2738 9.11315 16.4723 9.15029C17.5164 9.19928 18.5599 9.36285 19.5858 9.65271C25.6305 11.2289 31.0869 16.361 31.241 23.9586C31.6829 29.0047 29.6965 33.5895 26.6594 34.5825C25.5419 35.0701 24.1863 35.2027 22.5757 34.7218C21.9363 34.5776 21.2976 34.3451 20.6909 34.0102C19.7073 33.5124 18.9426 32.8324 18.2913 32.1033C18.2169 32.0291 18.146 31.9556 18.0784 31.8827L17.8066 32.1544C17.684 32.0318 17.5572 31.8642 17.435 31.6939C17.3564 31.5842 17.2691 31.4583 17.1777 31.3264C17.151 31.2879 17.124 31.2489 17.0967 31.2097C17.0702 31.1715 17.0435 31.1332 17.0166 31.0948C16.7101 30.6566 16.35 30.1639 15.9254 29.7124C15.07 28.8028 14.0329 28.1414 12.7402 28.351L12.6763 27.9571C11.292 28.0793 9.95743 28.8422 9.34374 30.4714C7.37664 38.0083 25.954 51.5716 36.1234 36.1712C36.5323 35.4858 36.882 34.8005 37.181 34.117L38.2819 30.7751Z" fill="url(#paint0_linear_401_7089)"/>
<defs>
<linearGradient id="paint0_linear_401_7089" x1="6.38059" y1="0" x2="6.38059" y2="51" gradientUnits="userSpaceOnUse">
<stop stop-color="#FDAE8F"/>
<stop offset="1" stop-color="#FD1C68"/>
</linearGradient>
</defs>
</svg>
